<?xml version="1.0" standalone="no"?>
<!DOCTYPE svg PUBLIC "-//W3C//DTD SVG 20010904//EN"
 "http://www.w3.org/TR/2001/REC-SVG-20010904/DTD/svg10.dtd">
<svg version="1.0" xmlns="http://www.w3.org/2000/svg"
 width="200.000000pt" height="200.000000pt" viewBox="0 0 200.000000 200.000000"
 preserveAspectRatio="xMidYMid meet">

<g transform="translate(0.000000,200.000000) scale(0.100000,-0.100000)"
fill="#000000" stroke="none">
<path d="M255 1976 c-54 -25 -100 -71 -122 -123 -19 -48 -19 -1458 0 -1506 22
-52 68 -98 122 -123 42 -20 66 -24 156 -24 l106 0 11 -38 c17 -55 73 -116 131
-141 50 -21 56 -21 633 -19 l583 3 3 900 c2 588 -1 912 -7 935 -15 52 -68 110
-125 136 l-51 24 -695 0 -695 0 -50 -24z m172 -63 c19 -9 47 -34 61 -56 l27
-41 3 -773 2 -773 -106 0 c-126 0 -163 13 -202 73 l-27 41 0 716 0 716 26 40
c46 70 138 94 216 57z m1300 0 c19 -9 47 -34 61 -56 l27 -41 3 -873 2 -873
-556 0 c-624 0 -602 -2 -652 73 l-27 41 -3 550 c-1 303 -3 677 -5 832 l-2 281
-28 41 -27 42 586 0 c525 0 590 -2 621 -17z"/>
<path d="M724 1787 c-2 -7 -3 -96 -2 -197 l3 -185 184 -3 c127 -2 188 1 197 9
19 15 20 359 2 377 -18 18 -377 17 -384 -1z m326 -187 l0 -130 -135 0 -135 0
0 130 0 130 135 0 135 0 0 -130z"/>
<path d="M1191 1786 c-15 -18 -4 -45 23 -51 11 -3 117 -4 235 -3 184 3 215 5
224 19 6 9 7 24 4 33 -6 14 -33 16 -240 16 -187 0 -237 -3 -246 -14z"/>
<path d="M1191 1586 c-15 -18 -4 -45 23 -51 11 -3 117 -4 235 -3 184 3 215 5
224 19 6 9 7 24 4 33 -6 14 -33 16 -240 16 -187 0 -237 -3 -246 -14z"/>
<path d="M1196 1454 c-9 -8 -16 -19 -16 -23 0 -28 35 -31 261 -29 l234 3 3 24
c2 13 -2 28 -10 32 -7 5 -113 9 -235 9 -188 0 -224 -2 -237 -16z"/>
<path d="M724 1315 c-4 -8 -4 -22 0 -30 5 -13 64 -15 478 -13 l473 3 0 25 0
25 -473 3 c-414 2 -473 0 -478 -13z"/>
<path d="M727 1193 c-16 -16 -6 -53 16 -58 12 -3 224 -4 471 -3 400 3 450 5
459 19 6 9 7 24 4 33 -6 14 -50 16 -475 16 -258 0 -472 -3 -475 -7z"/>
<path d="M732 1061 c-8 -4 -12 -19 -10 -32 l3 -24 475 0 475 0 3 24 c2 13 -2
28 -10 32 -7 5 -218 9 -468 9 -250 0 -461 -4 -468 -9z"/>
<path d="M724 715 c-4 -8 -4 -22 0 -30 5 -13 64 -15 478 -13 l473 3 0 25 0 25
-473 3 c-414 2 -473 0 -478 -13z"/>
<path d="M724 515 c-4 -8 -4 -22 0 -30 5 -13 64 -15 478 -13 l473 3 0 25 0 25
-473 3 c-414 2 -473 0 -478 -13z"/>
<path d="M727 393 c-16 -16 -6 -53 16 -58 12 -3 224 -4 471 -3 400 3 450 5
459 19 6 9 7 24 4 33 -6 14 -50 16 -475 16 -258 0 -472 -3 -475 -7z"/>
</g>
</svg>
